<?xml version="1.0" standalone="no"?>
<svg xmlns:xlink="http://www.w3.org/1999/xlink" id="wave" style="transform:rotate(180deg); transition: 0.3s" viewBox="0 0 1440 160" version="1.1" xmlns="http://www.w3.org/2000/svg"><defs><linearGradient id="sw-gradient-0" x1="0" x2="0" y1="1" y2="0"><stop stop-color="rgba(246.764, 204.251, 251.813, 1)" offset="0%"/><stop stop-color="rgba(171.233, 11, 255, 0.82)" offset="100%"/></linearGradient></defs><path style="transform:translate(0, 0px); opacity:1" fill="url(#sw-gradient-0)" d="M0,64L48,77.3C96,91,192,117,288,114.7C384,112,480,80,576,72C672,64,768,80,864,96C960,112,1056,128,1152,114.7C1248,101,1344,59,1440,58.7C1536,59,1632,101,1728,106.7C1824,112,1920,80,2016,69.3C2112,59,2208,69,2304,64C2400,59,2496,37,2592,45.3C2688,53,2784,91,2880,90.7C2976,91,3072,53,3168,42.7C3264,32,3360,48,3456,64C3552,80,3648,96,3744,98.7C3840,101,3936,91,4032,82.7C4128,75,4224,69,4320,61.3C4416,53,4512,43,4608,48C4704,53,4800,75,4896,74.7C4992,75,5088,53,5184,61.3C5280,69,5376,107,5472,106.7C5568,107,5664,69,5760,64C5856,59,5952,85,6048,90.7C6144,96,6240,80,6336,61.3C6432,43,6528,21,6624,10.7C6720,0,6816,0,6864,0L6912,0L6912,160L6864,160C6816,160,6720,160,6624,160C6528,160,6432,160,6336,160C6240,160,6144,160,6048,160C5952,160,5856,160,5760,160C5664,160,5568,160,5472,160C5376,160,5280,160,5184,160C5088,160,4992,160,4896,160C4800,160,4704,160,4608,160C4512,160,4416,160,4320,160C4224,160,4128,160,4032,160C3936,160,3840,160,3744,160C3648,160,3552,160,3456,160C3360,160,3264,160,3168,160C3072,160,2976,160,2880,160C2784,160,2688,160,2592,160C2496,160,2400,160,2304,160C2208,160,2112,160,2016,160C1920,160,1824,160,1728,160C1632,160,1536,160,1440,160C1344,160,1248,160,1152,160C1056,160,960,160,864,160C768,160,672,160,576,160C480,160,384,160,288,160C192,160,96,160,48,160L0,160Z"/></svg>